#!OML:ASF I:\Actors\actors\Patient Classification 1\Patient 1\Session 1\Subject1.ASF
:FULLY-SPECIFIED
:DEGREES
928
root 0.63818 17.5259 9.3152 7.08445 -3.06549 -9.2195
lowerback 2.49195 1.20442 7.23313
upperback -5.37218 2.14674 1.62013
thorax -6.84428 0.721584 -2.52173
lowerneck -16.5574 -3.25802 -1.71098
upperneck 40.4413 -6.57212 4.61882
head 18.1463 -2.27612 1.15225
rclavicle -1.32689e-014 -3.57812e-015
rhumerus -56.114 45.7162 -108.904
rradius 102.178
rwrist -9.27814
rhand 6.31064 -19.6516
rfingers 7.12502
rthumb 31.6193 313.067
lclavicle -1.32689e-014 -3.57812e-015
lhumerus -70.6773 -62.2916 117.915
lradius 97.4922
lwrist 61.8816
lhand -30.2166 -24.8702
lfingers 7.12502
lthumb -3.52666 5.08033
rfemur -3.01189 21.8379 27.263
rtibia 4.48595
rfoot -13.3787 -24.2156
rtoes 8.00647
lfemur 5.61122 -33.739 -11.4962
ltibia -2.76421
lfoot -13.7348 43.3412
ltoes 0.238942
929
root 0.641583 17.5267 9.30973 7.04066 -3.08252 -9.21425
lowerback 2.44426 1.20985 7.28943
upperback -5.21613 2.14206 1.59709
thorax -6.64687 0.725966 -2.57407
lowerneck -16.7457 -3.27319 -1.82469
upperneck 40.4494 -6.56345 4.64294
head 18.208 -2.28279 1.18289
rclavicle 1.98785e-015 -2.10712e-014
rhumerus -55.7259 46.7959 -109.503
rradius 102.069
rwrist -9.22011
rhand 5.76173 -19.8277
rfingers 7.12502
rthumb 31.0962 312.789
lclavicle 1.98785e-015 -2.10712e-014
lhumerus -70.6914 -63.2577 118.952
lradius 97.3681
lwrist 62.086
lhand -29.9858 -22.6091
lfingers 7.12502
lthumb -3.3037 7.34501
rfemur -3.01724 21.8067 27.2565
rtibia 4.538
rfoot -13.3076 -24.2061
rtoes 7.78463
lfemur 5.62234 -33.6741 -11.5258
ltibia -2.73385
lfoot -13.4455 43.2966
ltoes -0.269831
930
root 0.644248 17.5276 9.30548 7.00031 -3.09868 -9.21493
lowerback 2.42828 1.23824 7.38203
upperback -5.07231 2.17313 1.55975
thorax -6.47649 0.744731 -2.66505
lowerneck -16.9762 -3.31211 -1.87108
upperneck 40.4866 -6.58536 4.58938
head 18.2923 -2.30046 1.15869
rclavicle 1.98288e-014 -3.18055e-015
rhumerus -55.5412 47.665 -110.06
rradius 102.157
rwrist -8.74926
rhand 5.05711 -19.9284
rfingers 7.12502
rthumb 30.4244 312.562
lclavicle 1.98288e-014 -3.18055e-015
lhumerus -70.7953 -64.065 119.989
lradius 97.2551
lwrist 62.3909
lhand -29.4885 -20.5292
lfingers 7.12502
lthumb -2.82349 9.43184
rfemur -3.02712 21.7464 27.2601
rtibia 4.6036
rfoot -13.2561 -24.1673
rtoes 7.66005
lfemur 5.62468 -33.5564 -11.5344
ltibia -2.69689
lfoot -13.2391 43.1944
ltoes -0.657356
931
root 0.646792 17.5286 9.30066 6.94296 -3.00902 -9.16188
lowerback 2.43633 1.23146 7.42461
upperback -4.9129 2.15562 1.5204
thorax -6.30938 0.742475 -2.7273
lowerneck -17.2032 -3.33834 -1.88523
upperneck 40.4341 -6.58338 4.51867
head 18.3181 -2.30738 1.12375
rclavicle 2.04375e-014 -2.38542e-015
rhumerus -55.3504 48.3839 -110.468
rradius 102.359
rwrist -8.01452
rhand 4.32461 -19.7899
rfingers 7.12502
rthumb 29.7256 312.574
lclavicle 2.04375e-014 -2.38542e-015
lhumerus -71.0983 -64.7483 121.125
lradius 97.1741
lwrist 62.3964
lhand -29.3537 -19.3392
lfingers 7.12502
lthumb -2.69331 10.6236
rfemur -3.0478 21.5921 27.1939
rtibia 4.68973
rfoot -13.1887 -24.1559
rtoes 7.39053
lfemur 5.50293 -33.3594 -11.5214
ltibia -2.5651
lfoot -13.1899 42.8774
ltoes -0.732799
932
root 0.645132 17.5278 9.30199 6.94582 -3.08125 -9.11105
lowerback 2.2954 1.26922 7.36575
upperback -4.73662 2.17766 1.49952
thorax -6.03743 0.769502 -2.71205
lowerneck -17.3397 -3.30964 -1.8777
upperneck 40.2528 -6.51064 4.49183
head 18.2405 -2.28063 1.11926
rclavicle 2.38542e-015 6.75868e-015
rhumerus -55.1963 48.9507 -110.782
rradius 102.668
rwrist -7.15643
rhand 3.78962 -19.6742
rfingers 7.12502
rthumb 29.2148 312.599
lclavicle 2.38542e-015 6.75868e-015
lhumerus -71.4688 -65.2672 122.11
lradius 97.1605
lwrist 62.3258
lhand -29.4896 -18.7623
lfingers 7.12502
lthumb -2.82458 11.1988
rfemur -3.1438 21.5319 27.1366
rtibia 4.84713
rfoot -13.124 -24.0703
rtoes 7.0492
lfemur 5.44815 -33.0622 -11.5049
ltibia -2.54201
lfoot -13.2028 42.646
ltoes -0.741858
933
root 0.646458 17.5282 9.29947 6.90384 -2.95009 -9.09819
lowerback 2.28693 1.22641 7.43495
upperback -4.58603 2.11263 1.46496
thorax -5.87545 0.742469 -2.78044
lowerneck -17.39 -3.2392 -1.77529
upperneck 40.0005 -6.39049 4.43681
head 18.0901 -2.22722 1.09448
rclavicle 2.80783e-015 -6.36111e-015
rhumerus -55.1066 49.3318 -110.985
rradius 103.057
rwrist -6.24135
rhand 3.40078 -19.5293
rfingers 7.12502
rthumb 28.8435 312.68
lclavicle 2.80783e-015 -6.36111e-015
lhumerus -71.636 -65.582 122.626
lradius 97.1797
lwrist 62.567
lhand -29.3622 -18.4583
lfingers 7.12502
lthumb -2.70147 11.5044
rfemur -3.17573 21.5087 27.1334
rtibia 4.99172
rfoot -13.2405 -24.1671
rtoes 7.14624
lfemur 5.25065 -32.67 -11.3586
ltibia -2.42122
lfoot -13.02 42.1737
ltoes -1.09283
934
root 0.648105 17.5291 9.29807 6.80442 -2.85975 -9.14174
lowerback 2.37852 1.20026 7.57869
upperback -4.43885 2.08376 1.43086
thorax -5.76987 0.728013 -2.89505
lowerneck -17.5367 -3.24819 -1.79174
upperneck 39.8819 -6.41261 4.49534
head 18.0657 -2.22899 1.11592
rclavicle 6.90777e-015 -1.51076e-014
rhumerus -54.9395 49.6102 -110.907
rradius 103.484
rwrist -5.37189
rhand 3.01584 -19.4137
rfingers 7.12502
rthumb 28.4757 312.734
lclavicle 6.90777e-015 -1.51076e-014
lhumerus -71.6237 -65.7265 122.707
lradius 97.2928
lwrist 63.2131
lhand -28.7328 -18.1381
lfingers 7.12502
lthumb -2.09366 11.8314
rfemur -3.09482 21.5844 27.2368
rtibia 5.09093
rfoot -13.3658 -24.3159
rtoes 7.21997
lfemur 5.18745 -32.286 -11.2192
ltibia -2.34145
lfoot -12.9944 41.728
ltoes -1.08943
935
root 0.648479 17.5267 9.29997 6.79209 -2.88041 -9.2152
lowerback 2.34438 1.22885 7.73741
upperback -4.31864 2.11817 1.40033
thorax -5.61387 0.745958 -3.01503
lowerneck -17.6285 -3.23272 -1.79125
upperneck 39.7868 -6.39301 4.52962
head 18.0357 -2.21541 1.13285
rclavicle -8.69683e-016 1.59028e-014
rhumerus -54.698 49.8339 -110.582
rradius 103.9
rwrist -4.13395
rhand 2.49185 -19.368
rfingers 7.12502
rthumb 27.9749 312.697
lclavicle -8.69683e-016 1.59028e-014
lhumerus -71.635 -65.7364 122.603
lradius 97.5182
lwrist 63.8599
lhand -28.255 -17.9294
lfingers 7.12502
lthumb -1.63223 12.0441
rfemur -3.09798 21.6739 27.3442
rtibia 5.16568
rfoot -13.4002 -24.3798
rtoes 7.1734
lfemur 5.14156 -31.9604 -11.0571
ltibia -2.32317
lfoot -12.9896 41.4458
ltoes -1.13094
936
root 0.65378 17.5277 9.29842 6.693 -2.71986 -9.26049
lowerback 2.43667 1.17298 7.96402
upperback -4.20036 2.05558 1.36222
thorax -5.54174 0.709869 -3.17811
lowerneck -17.7186 -3.18046 -1.73664
upperneck 39.7217 -6.29199 4.4559
head 18.009 -2.17589 1.10693
rclavicle 1.1163e-014 1.19271e-014
rhumerus -54.2664 50.1058 -109.988
rradius 104.344
rwrist -2.86176
rhand 2.46656 -19.3062
rfingers 7.12502
rthumb 27.9507 312.754
lclavicle 1.1163e-014 1.19271e-014
lhumerus -71.5861 -65.6459 122.316
lradius 97.7832
lwrist 64.11
lhand -28.1656 -17.4468
lfingers 7.12502
lthumb -1.54587 12.5274
rfemur -3.00974 21.6029 27.4049
rtibia 5.18824
rfoot -13.4659 -24.4639
rtoes 7.4238
lfemur 5.06852 -31.8018 -10.9628
ltibia -2.20243
lfoot -12.7224 41.1551
ltoes -1.65642
